<svg width="140" height="198" viewBox="0 0 140 198" fill="none" xmlns="http://www.w3.org/2000/svg">
<g clip-path="url(#clip0_41_47)">
<path d="M69.9147 197.5L12.9402 181.637L0.243408 38.8135H139.757L127.047 181.615L69.9147 197.5Z" fill="#264DE4"/>
<path d="M116.166 172.522L127.026 50.4911H70V185.358L116.166 172.522Z" fill="#2965F1"/>
<path d="M29.3502 103.462L30.9154 120.979H70V103.462H29.3502ZM26.2046 68.0083L27.7922 85.525H70V68.0083H26.2046ZM70 148.955L69.9234 148.975L50.4722 143.708L49.2286 129.738H31.6958L34.1425 157.242L69.9196 167.202L70 167.18V148.955Z" fill="#EBEBEB"/>
<path d="M33.0771 0H54.2303V8.87216H41.9234V17.7443H54.2314V26.6159H33.0771V0ZM58.4614 0H79.6151V7.71487H67.3077V9.25773H79.6151V27.002H58.462V18.9005H70.7694V17.3576H58.4609L58.4614 0ZM83.8463 0H105V7.71487H92.6925V9.25773H105V27.002H83.8463V18.9005H96.1537V17.3576H83.8468L83.8463 0Z" fill="black"/>
<path d="M110.538 103.462L113.691 68.0083H69.9398V85.525H94.5502L92.961 103.462H69.9398V120.979H91.4467L89.4189 143.697L69.9392 148.97V167.194L105.745 157.242L106.007 154.282L110.112 108.166L110.538 103.462Z" fill="white"/>
</g>
<defs>
<clipPath id="clip0_41_47">
<rect width="140" height="198" fill="white"/>
</clipPath>
</defs>
</svg>
