<svg width="130" height="130" viewBox="0 0 130 130" fill="none" xmlns="http://www.w3.org/2000/svg">
<g clip-path="url(#clip0_41_15)">
<path d="M46.2109 131.016C58.2969 131.016 68.0469 121.266 68.0469 109.18V87.3438H46.2109C34.125 87.3438 24.375 97.0938 24.375 109.18C24.375 121.266 34.125 131.016 46.2109 131.016Z" fill="#0ACF83"/>
<path d="M24.375 65.5078C24.375 53.4219 34.125 43.6719 46.2109 43.6719H68.0469V87.3438H46.2109C34.125 87.3438 24.375 77.5937 24.375 65.5078Z" fill="#A259FF"/>
<path d="M24.375 21.8359C24.375 9.75 34.125 0 46.2109 0H68.0469V43.6719H46.2109C34.125 43.6719 24.375 33.9219 24.375 21.8359Z" fill="#F24E1E"/>
<path d="M68.0469 0H89.8828C101.969 0 111.719 9.75 111.719 21.8359C111.719 33.9219 101.969 43.6719 89.8828 43.6719H68.0469V0Z" fill="#FF7262"/>
<path d="M111.719 65.5078C111.719 77.5937 101.969 87.3438 89.8828 87.3438C77.7969 87.3438 68.0469 77.5937 68.0469 65.5078C68.0469 53.4219 77.7969 43.6719 89.8828 43.6719C101.969 43.6719 111.719 53.4219 111.719 65.5078Z" fill="#1ABCFE"/>
</g>
<defs>
<clipPath id="clip0_41_15">
<rect width="130" height="130" fill="white"/>
</clipPath>
</defs>
</svg>
