<svg width="146" height="206" viewBox="0 0 146 206" fill="none" xmlns="http://www.w3.org/2000/svg">
<g clip-path="url(#clip0_41_41)">
<path d="M145.746 40.3817L132.492 188.953L72.911 205.48L13.4947 188.976L0.253784 40.3817H145.746Z" fill="#E44D26"/>
<path d="M73 192.847L121.144 179.492L132.47 52.5311H73V192.847Z" fill="#F16529"/>
<path d="M47.2333 88.9805H73V70.7561H27.3276L27.7634 75.6453L32.2403 125.867H73V107.643H48.898L47.2333 88.9805ZM51.3384 134.98H33.0541L35.6057 163.595L72.9161 173.958L73 173.935V154.974L72.9201 154.995L52.6353 149.514L51.3384 134.98Z" fill="#EBEBEB"/>
<path d="M13.7902 0H23.0463V9.15017H31.5138V0H40.7705V27.709H31.5143V18.4304H23.0469V27.709H13.7907L13.7902 0ZM52.9421 9.18897H44.7946V0H70.3526V9.18897H62.2V27.709H52.9438V9.18897H52.9421ZM74.4087 0H84.0601L89.997 9.73621L95.9283 0H105.584V27.709H96.3651V13.9749L89.997 23.827H89.8373L83.4652 13.9749V27.709H74.4087V0ZM110.19 0H119.449V18.5503H132.466V27.709H110.19L110.19 0Z" fill="black"/>
<path d="M72.9373 125.867H95.366L93.2513 149.503L72.9368 154.989V173.949L110.277 163.595L110.551 160.516L114.831 112.536L115.276 107.643H72.9373V125.867ZM72.9373 88.936V88.9805H116.933L117.298 84.8845L118.128 75.6453L118.563 70.7561H72.9373V88.936Z" fill="white"/>
</g>
<defs>
<clipPath id="clip0_41_41">
<rect width="146" height="206" fill="white"/>
</clipPath>
</defs>
</svg>
