<svg width="126" height="126" viewBox="0 0 126 126" fill="none" xmlns="http://www.w3.org/2000/svg">
<path d="M7.875 7.875H118.125V118.125H7.875V7.875Z" fill="#F5DE19"/>
<path d="M81.9355 94.0078C82.8764 95.9147 84.3362 97.5175 86.1471 98.6319C87.9581 99.7463 90.0467 100.327 92.173 100.308C96.4649 100.308 99.2093 98.1618 99.2093 95.189C99.2093 91.6453 96.3901 90.3774 91.6651 88.3102L89.0742 87.1998C81.593 84.0144 76.6317 80.0257 76.6317 71.5916C76.6317 63.8229 82.538 57.9048 91.8029 57.9048C94.802 57.6888 97.7984 58.3602 100.419 59.8355C103.039 61.3108 105.167 63.5247 106.537 66.2011L98.4376 71.379C97.9096 70.052 96.9909 68.9168 95.8033 68.1237C94.6157 67.3305 93.2151 66.9168 91.7872 66.9375C91.1641 66.8751 90.5349 66.9432 89.9396 67.1374C89.3443 67.3317 88.796 67.6478 88.3296 68.0656C87.8632 68.4835 87.489 68.9939 87.2308 69.5644C86.9726 70.1348 86.836 70.7528 86.8298 71.379C86.8298 74.4856 88.7553 75.7456 93.2007 77.679L95.7916 78.7893C104.596 82.5654 109.573 86.4123 109.573 95.063C109.573 104.391 102.245 109.502 92.4053 109.502C88.5718 109.744 84.7501 108.872 81.4004 106.992C78.0507 105.112 75.3158 102.304 73.525 98.906L81.9355 94.0078ZM45.3365 94.9055C46.9627 97.7917 48.4432 100.233 52.0027 100.233C55.4047 100.233 57.5545 98.9021 57.5545 93.7243V58.4955H67.9141V93.8621C67.9141 104.588 61.6141 109.47 52.4437 109.47C49.2021 109.648 45.9828 108.84 43.209 107.153C40.4351 105.466 38.2366 102.98 36.9023 100.02L45.3365 94.9055Z" fill="black"/>
</svg>
