<svg width="91" height="91" viewBox="0 0 91 91" fill="none" xmlns="http://www.w3.org/2000/svg">
<g clip-path="url(#clip0_41_69)">
<path d="M81.2695 39.2821C81.2328 39.2821 81.1969 39.293 81.1664 39.3134L79.4985 40.2874C79.4672 40.3068 79.4414 40.3341 79.4237 40.3665C79.406 40.3989 79.397 40.4353 79.3976 40.4722V42.4202C79.3976 42.5026 79.4367 42.5652 79.4985 42.6064L81.1664 43.579C81.1969 43.5995 81.2328 43.6104 81.2695 43.6104C81.3062 43.6104 81.3421 43.5995 81.3726 43.579L83.0376 42.6064C83.0692 42.5866 83.0953 42.559 83.1133 42.5263C83.1313 42.4936 83.1407 42.4568 83.1407 42.4195V40.4736C83.1411 40.4365 83.1318 40.3999 83.1137 40.3675C83.0956 40.3351 83.0694 40.308 83.0376 40.2888L81.3719 39.3141C81.3416 39.2938 81.306 39.2822 81.2695 39.2821ZM44.9456 50.9301C44.642 50.9301 44.3398 51.004 44.0825 51.1491L35.8719 55.9315C35.6088 56.0861 35.3907 56.3068 35.2393 56.5717C35.0879 56.8366 35.0084 57.1365 35.0088 57.4416V66.9845C35.0088 67.6059 35.3372 68.186 35.8719 68.4974L38.0331 69.7387C39.0825 70.2562 39.4529 70.2548 39.9256 70.2548C41.4684 70.2548 42.3535 69.3029 42.3535 67.667V58.2506C42.3526 58.1851 42.3263 58.1225 42.2801 58.0759C42.234 58.0294 42.1716 58.0026 42.1061 58.0011H41.0582C40.9924 58.0022 40.9296 58.0289 40.8832 58.0754C40.8367 58.122 40.8102 58.1849 40.8093 58.2506V67.6691C40.8093 68.3936 40.0493 69.1194 38.8358 68.4988L36.5928 67.1942C36.5103 67.153 36.4683 67.0478 36.4683 66.9653V57.4203C36.4683 57.3378 36.5103 57.2354 36.5928 57.1935L44.8005 52.4323C44.8624 52.3911 44.9662 52.3911 45.0487 52.4323L53.2586 57.1935C53.3403 57.2354 53.3808 57.3172 53.3808 57.421V66.9646C53.3808 67.0677 53.3403 67.1523 53.2586 67.1935L45.0487 71.976C44.9868 72.0172 44.883 72.0172 44.8005 71.976L42.7026 70.7112C42.6407 70.67 42.5582 70.6494 42.4964 70.6906C41.9205 71.0219 41.8196 71.0653 41.2636 71.2515C41.1399 71.2928 40.9345 71.3745 41.3454 71.602L44.0825 73.2386C44.3498 73.3829 44.637 73.4654 44.9456 73.4654C45.2541 73.4654 45.5619 73.3836 45.8086 73.2806L54.0193 68.4981C54.2828 68.3433 54.5011 68.1222 54.6525 67.8567C54.804 67.5913 54.8832 67.2908 54.8823 66.9852V57.4416C54.8823 56.8202 54.5539 56.2422 54.0193 55.9315L45.8086 51.1491C45.5442 51.004 45.2472 50.9287 44.9456 50.9301ZM57.7638 55.2881C57.3424 55.2898 56.939 55.4588 56.6421 55.7578C56.3452 56.0568 56.1792 56.4614 56.1805 56.8828C56.1794 57.304 56.3455 57.7085 56.6423 58.0073C56.9392 58.3062 57.3425 58.475 57.7638 58.4767C58.629 58.4767 59.3477 57.7523 59.3477 56.8828C59.3455 56.4625 59.1782 56.0598 58.8819 55.7617C58.5857 55.4635 58.1841 55.293 57.7638 55.2881ZM57.7424 55.5576C57.9177 55.5554 58.0916 55.5881 58.2542 55.6538C58.4167 55.7194 58.5645 55.8168 58.6891 55.9401C58.8136 56.0634 58.9124 56.2102 58.9798 56.3721C59.0471 56.5339 59.0815 56.7075 59.0811 56.8828C59.0811 57.6079 58.4839 58.2293 57.7432 58.2293C57.0237 58.2293 56.4265 57.6278 56.4265 56.8828C56.4265 56.1377 57.0436 55.5576 57.7424 55.5576ZM57.1673 55.992V57.8134H57.5185V57.0911H57.827C57.9507 57.0911 57.9913 57.1323 58.0119 57.2354C58.0119 57.2567 58.073 57.7117 58.073 57.7942H58.4427C58.4015 57.7117 58.3809 57.4629 58.3602 57.3179C58.3403 57.0904 58.3204 56.9247 58.073 56.9041C58.1967 56.8622 58.4022 56.8003 58.4022 56.469C58.4022 55.9927 57.9898 55.9927 57.7851 55.9927L57.1673 55.992ZM57.4765 56.282H57.7638C57.8676 56.282 58.0311 56.282 58.0311 56.5302C58.0311 56.6126 57.9913 56.7797 57.7638 56.7797H57.4758L57.4765 56.282ZM47.1893 57.711C44.8432 57.711 43.4441 58.7049 43.4441 60.382C43.4441 62.1835 44.8432 62.6783 47.0862 62.9066C49.7807 63.176 49.9868 63.5699 49.9868 64.108C49.9868 65.0394 49.2446 65.4332 47.5163 65.4332C45.3352 65.4332 44.8624 64.8943 44.6974 63.7974C44.6974 63.6729 44.5965 63.5912 44.4728 63.5912H43.4028C43.3375 63.5919 43.275 63.6184 43.229 63.6648C43.1829 63.7112 43.157 63.7739 43.1568 63.8393C43.1568 65.247 43.8969 66.9035 47.4985 66.9035C50.0899 66.9035 51.5921 65.8669 51.5921 64.0455C51.5921 62.2646 50.3977 61.789 47.8682 61.4577C45.316 61.1264 45.0494 60.9401 45.0494 60.3401C45.0494 59.8431 45.2754 59.1812 47.168 59.1812C48.855 59.1812 49.492 59.5545 49.7394 60.6927C49.7518 60.7441 49.7807 60.7899 49.8217 60.8233C49.8626 60.8567 49.9134 60.8758 49.9662 60.8775H51.0561C51.1186 60.8775 51.1805 60.837 51.2224 60.7958C51.2597 60.7404 51.2807 60.6756 51.2829 60.6088C51.1186 58.6217 49.8233 57.711 47.1893 57.711Z" fill="#5FA04E"/>
<path d="M61.1918 17.5346C61.1043 17.5333 61.018 17.5551 60.9416 17.5979C60.8622 17.6445 60.796 17.7106 60.7494 17.79C60.7027 17.8694 60.6771 17.9594 60.675 18.0515V31.5088C60.675 31.6325 60.611 31.7576 60.488 31.8401C60.4312 31.8706 60.3677 31.8865 60.3032 31.8865C60.2387 31.8865 60.1752 31.8706 60.1183 31.8401L57.9386 30.5782C57.7786 30.4868 57.5975 30.4387 57.4132 30.4387C57.2289 30.4387 57.0478 30.4868 56.8878 30.5782L48.1661 35.6507C48.0047 35.7417 47.8702 35.8737 47.7762 36.0334C47.6822 36.1931 47.632 36.3747 47.6307 36.56V46.6837C47.6307 47.0563 47.8369 47.4089 48.1661 47.5952L56.8893 52.6677C57.0492 52.759 57.2301 52.807 57.4143 52.807C57.5984 52.807 57.7794 52.759 57.9393 52.6677L66.6618 47.5952C66.991 47.4089 67.1971 47.0563 67.1971 46.6837V21.4476C67.1971 21.0545 66.991 20.7011 66.6618 20.5156L61.4577 17.5979C61.3754 17.5566 61.2839 17.535 61.1918 17.5346ZM9.73064 30.1651C9.56642 30.1651 9.40219 30.2248 9.25858 30.3073L0.535376 35.3614C0.371431 35.4547 0.235372 35.59 0.141259 35.7535C0.0471462 35.917 -0.00160594 36.1026 4.03551e-05 36.2913L0.0213685 49.8716C0.0213685 50.0586 0.123033 50.2448 0.28797 50.328C0.364433 50.3782 0.453885 50.4049 0.545329 50.4049C0.636774 50.4049 0.726226 50.3782 0.802689 50.328L5.98827 47.3471C6.31743 47.1608 6.52147 46.8082 6.52147 46.4356V40.0799C6.52147 39.7073 6.72764 39.3547 7.05752 39.1684L9.25858 37.8852C9.42281 37.7814 9.60907 37.7402 9.79392 37.7402C9.97876 37.7402 10.1643 37.7814 10.3086 37.8852L12.5097 39.1684C12.8389 39.3547 13.045 39.7073 13.045 40.0799V46.4356C13.045 46.8082 13.2498 47.1608 13.5782 47.3471L18.7226 50.328C18.8025 50.379 18.8954 50.4061 18.9902 50.4061C19.0851 50.4061 19.178 50.379 19.2579 50.328C19.3398 50.2835 19.408 50.2174 19.4551 50.137C19.5022 50.0566 19.5265 49.9648 19.5252 49.8716V36.2913C19.5252 35.9187 19.3191 35.5661 18.9892 35.3791L10.2873 30.3073C10.1407 30.2295 9.98038 30.181 9.81524 30.1644L9.73064 30.1651ZM81.2986 30.3144C81.1187 30.3144 80.9403 30.3613 80.7753 30.4552L72.0507 35.5249C71.7215 35.7111 71.5175 36.0638 71.5175 36.437V46.5608C71.5175 46.9333 71.7215 47.2859 72.0507 47.4722L80.7128 52.4395C80.8687 52.531 81.0463 52.5792 81.2271 52.5792C81.408 52.5792 81.5855 52.531 81.7415 52.4395L86.9882 49.5012C87.07 49.4566 87.138 49.3905 87.185 49.3101C87.232 49.2296 87.2561 49.1379 87.2548 49.0448C87.2559 48.9519 87.2316 48.8605 87.1846 48.7803C87.1377 48.7001 87.0698 48.6343 86.9882 48.5898L78.2245 43.5165C78.1448 43.4697 78.0784 43.4032 78.0317 43.3234C77.9851 43.2437 77.9596 43.1532 77.9579 43.0608V39.8929C77.9569 39.8 77.9811 39.7086 78.0281 39.6284C78.0751 39.5482 78.1429 39.4824 78.2245 39.4379L80.9616 37.8639C81.0416 37.8128 81.1344 37.7857 81.2293 37.7857C81.3241 37.7857 81.417 37.8128 81.4969 37.8639L84.2312 39.4372C84.3113 39.4837 84.3781 39.5501 84.4252 39.6299C84.4722 39.7097 84.498 39.8002 84.4999 39.8929V42.3776C84.4999 42.5646 84.6023 42.7508 84.7665 42.8333C84.8466 42.8845 84.9396 42.9117 85.0346 42.9117C85.1295 42.9117 85.2226 42.8845 85.3026 42.8333L90.486 39.7905C90.645 39.6977 90.7764 39.5644 90.8669 39.4041C90.9573 39.2438 91.0035 39.0624 91.0008 38.8784V36.415C91.0008 36.0424 90.7946 35.6919 90.486 35.505L81.824 30.4545C81.6642 30.363 81.4834 30.3145 81.2993 30.3137L81.2986 30.3144ZM57.4132 37.8745C57.4594 37.8745 57.5063 37.8852 57.5483 37.9065L60.53 39.6455C60.6124 39.6867 60.6544 39.7891 60.6544 39.8723V43.3502C60.6544 43.454 60.6124 43.5378 60.53 43.5791L57.5476 45.318C57.5057 45.3385 57.4598 45.3491 57.4132 45.3491C57.3666 45.3491 57.3207 45.3385 57.2789 45.318L54.2965 43.5791C54.214 43.5378 54.1721 43.4333 54.1721 43.3502V39.8723C54.1721 39.7685 54.2147 39.6867 54.2965 39.6448L57.2789 37.9065C57.3205 37.8849 57.3662 37.8739 57.4132 37.8745Z" fill="#333333"/>
<path d="M34.1122 30.4943C33.9526 30.4025 33.7717 30.3541 33.5875 30.3541C33.4034 30.3541 33.2225 30.4025 33.0629 30.4943L24.4008 35.5256C24.2421 35.6182 24.1108 35.7513 24.0203 35.9113C23.9299 36.0714 23.8836 36.2525 23.8861 36.4363V46.5181C23.8861 46.8913 24.0923 47.2432 24.4008 47.4295L33.0629 52.4601C33.2225 52.5519 33.4034 52.6003 33.5875 52.6003C33.7717 52.6003 33.9526 52.5519 34.1122 52.4601L42.7736 47.4295C43.1027 47.2432 43.2883 46.8913 43.2883 46.5181V36.4363C43.2883 36.0638 43.0821 35.7111 42.7736 35.5256L34.1122 30.4943Z" fill="url(#paint0_linear_41_69)"/>
<path d="M42.7941 35.5255L34.0915 30.4942C34.0061 30.4509 33.9165 30.4164 33.8242 30.3911L24.0715 47.1806C24.154 47.2844 24.2564 47.3669 24.3595 47.4294L33.0628 52.46C33.3095 52.6051 33.5974 52.6463 33.8647 52.5631L43.0209 35.7118C42.9607 35.6329 42.8831 35.5692 42.7941 35.5255Z" fill="url(#paint1_linear_41_69)"/>
<path d="M42.7943 47.4288C43.0417 47.2837 43.2265 47.0356 43.309 46.7662L33.7824 30.3698C33.5364 30.3286 33.2684 30.3492 33.0423 30.4942L24.4009 35.5042L33.7213 52.6044C33.8443 52.5838 33.9886 52.5425 34.1123 52.48L42.7943 47.4288Z" fill="url(#paint2_linear_41_69)"/>
</g>
<defs>
<linearGradient id="paint0_linear_41_69" x1="37.1148" y1="34.2407" x2="29.2042" y2="50.2779" gradientUnits="userSpaceOnUse">
<stop stop-color="#3F873F"/>
<stop offset="0.33" stop-color="#3F8B3D"/>
<stop offset="0.637" stop-color="#3E9638"/>
<stop offset="0.934" stop-color="#3DA92E"/>
<stop offset="1" stop-color="#3DAE2B"/>
</linearGradient>
<linearGradient id="paint1_linear_41_69" x1="32.2711" y1="42.6544" x2="54.3423" y2="26.4473" gradientUnits="userSpaceOnUse">
<stop offset="0.138" stop-color="#3F873F"/>
<stop offset="0.402" stop-color="#52A044"/>
<stop offset="0.713" stop-color="#64B749"/>
<stop offset="0.908" stop-color="#6ABF4B"/>
</linearGradient>
<linearGradient id="paint2_linear_41_69" x1="23.5693" y1="41.4737" x2="43.6123" y2="41.4737" gradientUnits="userSpaceOnUse">
<stop offset="0.092" stop-color="#6ABF4B"/>
<stop offset="0.287" stop-color="#64B749"/>
<stop offset="0.598" stop-color="#52A044"/>
<stop offset="0.862" stop-color="#3F873F"/>
</linearGradient>
<clipPath id="clip0_41_69">
<rect width="91" height="91" fill="white"/>
</clipPath>
</defs>
</svg>
