<svg width="132" height="132" viewBox="0 0 132 132" fill="none" xmlns="http://www.w3.org/2000/svg">
<path d="M66.0001 77.7563C72.4929 77.7563 77.7564 72.4928 77.7564 66C77.7564 59.5072 72.4929 54.2438 66.0001 54.2438C59.5074 54.2438 54.2439 59.5072 54.2439 66C54.2439 72.4928 59.5074 77.7563 66.0001 77.7563Z" fill="#61DAFB"/>
<path d="M110.653 46.6125C108.384 45.7875 106.013 44.9625 103.538 44.2407C104.156 41.7657 104.672 39.2906 105.084 36.9188C107.25 23.3063 104.878 13.7156 98.2782 10.0031C96.3188 8.86877 94.1532 8.35315 91.6782 8.35315C84.4595 8.35315 75.2813 13.7156 66.0001 22.6875C56.7188 13.7156 47.5407 8.35315 40.322 8.35315C37.847 8.35315 35.6813 8.86877 33.722 10.0031C27.122 13.8188 24.7501 23.4094 26.9157 36.9188C27.3282 39.2906 27.8438 41.7657 28.4626 44.2407C25.9876 44.9625 23.6157 45.6844 21.347 46.6125C8.45635 51.5625 1.44385 58.3688 1.44385 66C1.44385 73.6313 8.55947 80.4375 21.347 85.3875C23.6157 86.2125 25.9876 87.0375 28.4626 87.7594C27.8438 90.2344 27.3282 92.7094 26.9157 95.0813C24.7501 108.694 27.122 118.284 33.722 121.997C35.6813 123.131 37.847 123.647 40.322 123.647C47.6438 123.647 56.822 118.284 66.0001 109.313C75.2813 118.284 84.4595 123.647 91.6782 123.647C94.1532 123.647 96.3188 123.131 98.2782 121.997C104.878 118.181 107.25 108.591 105.084 95.0813C104.672 92.7094 104.156 90.2344 103.538 87.7594C106.013 87.0375 108.384 86.3157 110.653 85.3875C123.544 80.4375 130.556 73.6313 130.556 66C130.556 58.3688 123.544 51.5625 110.653 46.6125ZM95.3907 15.1594C99.6188 17.6344 101.063 25.2656 99.3095 36.0938C99.0001 38.2594 98.4845 40.5281 97.8657 42.9C92.5032 41.6625 86.8313 40.8375 80.8501 40.3219C77.3438 35.3719 73.7345 30.9375 70.1251 26.9156C77.7563 19.3875 85.4907 14.2313 91.7813 14.2313C93.122 14.2313 94.3595 14.5406 95.3907 15.1594ZM83.8407 76.3125C81.9845 79.6125 79.8188 82.9125 77.5501 86.2125C73.7345 86.5219 69.9188 86.625 66.0001 86.625C61.9782 86.625 58.1626 86.5219 54.4501 86.2125C52.1813 82.9125 50.1188 79.6125 48.2626 76.3125C46.3032 72.9094 44.447 69.4032 42.797 66C44.447 62.5969 46.3032 59.0907 48.2626 55.6875C50.1188 52.3875 52.2845 49.0875 54.5532 45.7875C58.3688 45.4782 62.1845 45.375 66.1032 45.375C70.1251 45.375 73.9407 45.4782 77.6532 45.7875C79.922 49.0875 81.9845 52.3875 83.8407 55.6875C85.8001 59.0907 87.6563 62.5969 89.3063 66C87.5532 69.4032 85.8001 72.8063 83.8407 76.3125ZM92.4001 72.9094C93.947 76.5188 95.1845 80.025 96.3188 83.5313C92.8126 84.3563 89.1001 84.975 85.1813 85.4907C86.4188 83.5313 87.7595 81.4688 88.8938 79.3032C90.1313 77.1375 91.2657 74.9719 92.4001 72.9094ZM66.0001 100.856C63.5251 98.175 61.1532 95.2875 58.8845 92.2969C61.2563 92.4 63.6282 92.5031 66.0001 92.5031C68.372 92.5031 70.7438 92.4 73.1157 92.2969C70.847 95.2875 68.4751 98.175 66.0001 100.856ZM46.8188 85.3875C42.9001 84.8719 39.1876 84.2532 35.6813 83.4282C36.8157 80.025 38.0532 76.4156 39.6001 72.8063C40.7345 74.8688 41.8688 77.0344 43.1063 79.0969C44.3438 81.3656 45.5813 83.325 46.8188 85.3875ZM39.6001 59.0906C38.0532 55.4813 36.8157 51.975 35.6813 48.4688C39.1876 47.6438 42.9001 47.025 46.8188 46.5094C45.5813 48.4688 44.2407 50.5313 43.1063 52.6969C41.8688 54.8625 40.7345 57.0281 39.6001 59.0906ZM66.0001 31.1438C68.4751 33.825 70.847 36.7125 73.1157 39.7031C70.7438 39.6 68.372 39.4969 66.0001 39.4969C63.6282 39.4969 61.2563 39.6 58.8845 39.7031C61.1532 36.7125 63.5251 33.825 66.0001 31.1438ZM88.8938 52.8L85.1813 46.6125C89.1001 47.1281 92.8126 47.7469 96.3188 48.5719C95.1845 51.975 93.947 55.5844 92.4001 59.1938C91.2657 57.0282 90.1313 54.8625 88.8938 52.8ZM32.6907 36.0938C30.9376 25.2656 32.3813 17.6344 36.6095 15.1594C37.6407 14.5406 38.8782 14.2313 40.2188 14.2313C46.4063 14.2313 54.1407 19.2844 61.8751 26.9156C58.2657 30.8344 54.6563 35.3719 51.1501 40.3219C45.1688 40.8375 39.497 41.7656 34.1345 42.9C33.5157 40.5281 33.1032 38.2594 32.6907 36.0938ZM7.21885 66C7.21885 61.1532 13.097 55.9969 23.4095 52.1813C25.472 51.3563 27.7407 50.6344 30.0095 50.0157C31.6595 55.1719 33.722 60.6375 36.197 66.1031C33.722 71.5688 31.5563 76.9313 30.0095 82.0875C15.7782 77.9625 7.21885 71.775 7.21885 66ZM36.6095 116.841C32.3813 114.366 30.9376 106.734 32.6907 95.9063C33.0001 93.7407 33.5157 91.4719 34.1345 89.1C39.497 90.3375 45.1688 91.1625 51.1501 91.6782C54.6563 96.6282 58.2657 101.063 61.8751 105.084C54.2438 112.613 46.5095 117.769 40.2188 117.769C38.8782 117.769 37.6407 117.459 36.6095 116.841ZM99.3095 95.9063C101.063 106.734 99.6188 114.366 95.3907 116.841C94.3595 117.459 93.122 117.769 91.7813 117.769C85.5938 117.769 77.8595 112.716 70.1251 105.084C73.7345 101.166 77.3438 96.6282 80.8501 91.6782C86.8313 91.1625 92.5032 90.2344 97.8657 89.1C98.4845 91.4719 98.897 93.7407 99.3095 95.9063ZM108.591 79.8188C106.528 80.6438 104.259 81.3657 101.991 81.9844C100.341 76.8282 98.2782 71.3625 95.8032 65.8969C98.2782 60.4313 100.444 55.0688 101.991 49.9125C116.222 54.0375 124.781 60.225 124.781 66C124.781 70.8469 118.8 76.0032 108.591 79.8188Z" fill="#61DAFB"/>
</svg>
