<svg width="117" height="117" viewBox="0 0 117 117" fill="none" xmlns="http://www.w3.org/2000/svg">
<g clip-path="url(#clip0_41_88)">
<path d="M58.5037 23.4019C42.9034 23.4019 33.1567 31.1988 29.2537 46.7991C35.1018 39.0012 41.929 36.0772 49.7268 38.0269C54.1792 39.1365 57.3611 42.365 60.8848 45.9426C66.6196 51.7625 73.2575 58.5 87.7537 58.5C103.353 58.5 113.101 50.7022 117.004 35.0982C111.154 42.9 104.329 45.8256 96.5296 43.875C92.0781 42.7644 88.8999 39.5369 85.3716 35.9592C79.6404 30.1394 73.0043 23.4019 58.5037 23.4019ZM29.2537 58.5C13.6543 58.5 3.90671 66.2979 0.00366211 81.9019C5.85305 74.1 12.6774 71.1744 20.4768 73.125C24.9292 74.2356 28.1111 77.4632 31.6348 81.0408C37.3696 86.8607 44.0075 93.5982 58.5037 93.5982C74.103 93.5982 83.8506 85.8013 87.7537 70.2009C81.9037 77.9991 75.079 80.9232 67.2796 78.9732C62.8281 77.8635 59.6499 74.6351 56.1216 71.0574C50.3904 65.2376 43.7543 58.5 29.2537 58.5Z" fill="#38BDF8"/>
</g>
<defs>
<clipPath id="clip0_41_88">
<rect width="117" height="117" fill="white"/>
</clipPath>
</defs>
</svg>
