<svg width="156" height="156" viewBox="0 0 156 156" fill="none" xmlns="http://www.w3.org/2000/svg">
<path d="M152.059 23.79L82.0512 148.978C80.6046 151.563 76.891 151.577 75.4249 149.007L4.02807 23.8047C2.42785 20.9991 4.82269 17.6049 8.00241 18.1716L78.0854 30.6967C78.5327 30.7781 78.991 30.7781 79.4382 30.6967L148.054 18.1911C151.22 17.6146 153.63 20.9808 152.059 23.79Z" fill="url(#paint0_linear_41_81)"/>
<path d="M111.467 1.74284L59.6626 11.8926C59.2491 11.9734 58.8742 12.1892 58.5967 12.5062C58.3192 12.8232 58.1548 13.2234 58.1294 13.6439L54.94 67.4737C54.9228 67.7689 54.9746 68.064 55.0913 68.3357C55.208 68.6074 55.3863 68.8482 55.6122 69.0391C55.838 69.23 56.1052 69.3656 56.3926 69.4353C56.6799 69.505 56.9796 69.5069 57.2678 69.4408L71.6929 66.1075C72.0036 66.0361 72.3272 66.0438 72.6341 66.13C72.941 66.2162 73.2213 66.3781 73.4493 66.6008C73.6774 66.8236 73.8459 67.1 73.9393 67.4047C74.0328 67.7095 74.0482 68.0328 73.9842 68.3451L69.6978 89.3308C69.6323 89.6537 69.6518 89.9882 69.7543 90.3014C69.8568 90.6147 70.0389 90.8959 70.2828 91.1176C70.5266 91.3393 70.8238 91.494 71.1454 91.5664C71.4669 91.6387 71.8017 91.6264 72.117 91.5306L81.0237 88.8213C82.4045 88.4021 83.7329 89.6159 83.4429 91.0297L76.6301 123.993C76.2059 126.055 78.9481 127.179 80.0913 125.412L80.853 124.232L123.071 39.9799C123.78 38.5662 122.557 36.9574 121.011 37.2572L106.16 40.1237C105.841 40.1858 105.511 40.1647 105.202 40.0624C104.893 39.9601 104.615 39.7801 104.396 39.5396C104.176 39.2992 104.022 39.0063 103.949 38.6892C103.875 38.3721 103.884 38.0414 103.975 37.7289L113.664 4.13769C113.755 3.82404 113.764 3.49221 113.69 3.17419C113.615 2.85617 113.46 2.56268 113.239 2.32203C113.018 2.08137 112.739 1.90166 112.429 1.80021C112.118 1.69877 111.787 1.67901 111.467 1.74284Z" fill="url(#paint1_linear_41_81)"/>
<defs>
<linearGradient id="paint0_linear_41_81" x1="2.28306" y1="13.6983" x2="89.4161" y2="132.032" gradientUnits="userSpaceOnUse">
<stop stop-color="#41D1FF"/>
<stop offset="1" stop-color="#BD34FE"/>
</linearGradient>
<linearGradient id="paint1_linear_41_81" x1="74.0634" y1="4.49719" x2="89.8254" y2="112.622" gradientUnits="userSpaceOnUse">
<stop stop-color="#FFEA83"/>
<stop offset="0.083" stop-color="#FFDD35"/>
<stop offset="1" stop-color="#FFA800"/>
</linearGradient>
</defs>
</svg>
