<svg width="93" height="93" viewBox="0 0 93 93" fill="none" xmlns="http://www.w3.org/2000/svg">
<g clip-path="url(#clip0_41_75)">
<path d="M71.2031 0H21.7969C9.75879 0 0 9.75879 0 21.7969V71.2031C0 83.2412 9.75879 93 21.7969 93H71.2031C83.2412 93 93 83.2412 93 71.2031V21.7969C93 9.75879 83.2412 0 71.2031 0Z" fill="#0073AA"/>
<path d="M15.3355 46.4978C15.3355 58.8331 22.5041 69.4932 32.899 74.545L18.0335 33.8153C16.252 37.8059 15.3326 42.1276 15.3355 46.4978ZM67.5368 44.9252C67.5368 41.074 66.1534 38.4068 64.9669 36.3307C63.387 33.7637 61.9063 31.5899 61.9063 29.0229C61.9063 26.1581 64.0791 23.4916 67.1394 23.4916C67.2778 23.4916 67.4085 23.5087 67.5433 23.5163C61.9989 18.4369 54.6123 15.3356 46.4988 15.3356C35.612 15.3356 26.0334 20.9214 20.4614 29.3822C21.1923 29.404 21.8814 29.4196 22.4667 29.4196C25.7264 29.4196 30.772 29.0236 30.772 29.0236C32.4518 28.9248 32.6502 31.3922 30.9718 31.591C30.9718 31.591 29.2836 31.7897 27.4051 31.8881L38.7533 65.6435L45.5732 45.1897L40.7179 31.887C39.0399 31.7886 37.4502 31.5899 37.4502 31.5899C35.7708 31.4914 35.9676 28.9237 37.6471 29.0229C37.6471 29.0229 42.7933 29.4182 45.8554 29.4182C49.1148 29.4182 54.1608 29.0229 54.1608 29.0229C55.842 28.9237 56.0393 31.3911 54.3606 31.5899C54.3606 31.5899 52.6688 31.7886 50.7939 31.887L62.056 65.3866L65.1642 54.9997C66.5116 50.689 67.5368 47.5931 67.5368 44.9252Z" fill="white"/>
<path d="M47.0459 49.2239L37.6958 76.3937C40.5545 77.2356 43.5191 77.6632 46.4992 77.6634C50.0238 77.6645 53.523 77.0671 56.8476 75.8967C56.7612 75.7604 56.687 75.6168 56.626 75.4673L47.0459 49.2239ZM73.8437 31.5466C73.9852 32.6088 74.0554 33.6792 74.0537 34.7508C74.0537 37.9131 73.463 41.4682 71.684 45.9133L62.165 73.4351C71.4297 68.0324 77.6615 57.9953 77.6615 46.4986C77.6618 41.0802 76.2781 35.9852 73.8437 31.5466Z" fill="white"/>
<path d="M46.4993 10.1719C26.4687 10.1719 10.1719 26.4676 10.1719 46.4978C10.1719 66.5306 26.4687 82.8256 46.4993 82.8256C66.5288 82.8256 82.8281 66.5306 82.8281 46.4978C82.8274 26.4676 66.5288 10.1719 46.4993 10.1719ZM46.4993 81.1607C27.387 81.1607 11.8375 65.6108 11.8375 46.4978C11.8375 27.386 27.3867 11.8375 46.4993 11.8375C65.6104 11.8375 81.1588 27.386 81.1588 46.4978C81.1588 65.6108 65.6104 81.1607 46.4993 81.1607Z" fill="white"/>
</g>
<defs>
<clipPath id="clip0_41_75">
<rect width="93" height="93" fill="white"/>
</clipPath>
</defs>
</svg>
