<svg width="94" height="94" viewBox="0 0 94 94" fill="none" xmlns="http://www.w3.org/2000/svg">
<g clip-path="url(#clip0_41_58)">
<mask id="mask0_41_58" style="mask-type:alpha" maskUnits="userSpaceOnUse" x="-1" y="0" width="95" height="94">
<path fill-rule="evenodd" clip-rule="evenodd" d="M66.657 93.3582C67.4051 93.6498 68.2051 93.7843 69.0073 93.7535C69.8095 93.7226 70.5969 93.5271 71.3203 93.179L90.6733 83.8664C91.67 83.3866 92.5109 82.6352 93.0994 81.6987C93.688 80.7621 94.0001 79.6784 94 78.5723V15.4285C94.0003 14.3223 93.6882 13.2384 93.0996 12.3017C92.5111 11.365 91.6701 10.6135 90.6733 10.1337L71.3203 0.822543C70.2267 0.296368 68.9967 0.123126 67.8003 0.326795C66.604 0.530463 65.5005 1.10097 64.6426 1.95936L27.5934 35.7597L11.4563 23.5096C10.7282 22.9572 9.82979 22.6769 8.91676 22.7174C8.00373 22.7579 7.13366 23.1166 6.45738 23.7314L1.2815 28.4395C0.878147 28.8063 0.555804 29.2533 0.335095 29.7519C0.114387 30.2505 0.000171727 30.7896 -0.000243007 31.3349C-0.000657742 31.8801 0.112737 32.4194 0.332687 32.9183C0.552637 33.4172 0.874299 33.8647 1.2771 34.2322L15.2721 47L1.27783 59.7686C0.875253 60.1362 0.553783 60.5836 0.33397 61.0825C0.114157 61.5813 0.000835585 62.1205 0.00125028 62.6656C0.00166497 63.2107 0.115806 63.7497 0.336378 64.2482C0.55695 64.7467 0.879101 65.1937 1.28224 65.5606L6.45811 70.2687C7.1343 70.8836 8.00433 71.2424 8.91736 71.2831C9.83039 71.3237 10.7289 71.0436 11.457 70.4912L27.5942 58.2419L64.6434 92.0415C65.2168 92.6147 65.9019 93.063 66.657 93.3582ZM70.514 25.6613L42.4028 47L70.5147 68.3395L70.514 25.6613Z" fill="white"/>
</mask>
<g mask="url(#mask0_41_58)">
<path d="M90.674 10.1491L71.3056 0.822522C70.2117 0.295672 68.981 0.122064 67.784 0.325747C66.5871 0.52943 65.4831 1.10032 64.625 1.95933L1.22052 59.7686C0.817642 60.1359 0.4959 60.5834 0.275892 61.0822C0.0558844 61.5811 -0.0575425 62.1204 -0.0571278 62.6656C-0.056713 63.2108 0.0575343 63.7499 0.278301 64.2484C0.499068 64.7469 0.82149 65.1939 1.22493 65.5606L6.40374 70.2687C7.08013 70.8843 7.95074 71.2436 8.86442 71.2843C9.77811 71.3249 10.6772 71.0443 11.4056 70.4912L87.7593 12.5674C90.3208 10.6242 94 12.4513 94 15.6664V15.4417C94 14.3358 93.6879 13.2523 93.0995 12.3159C92.5111 11.3795 91.6704 10.6289 90.674 10.1491Z" fill="#0065A9"/>
<g filter="url(#filter0_d_41_58)">
<path d="M90.674 83.8517L71.3056 93.1768C70.2118 93.7038 68.9812 93.8777 67.7843 93.6742C66.5873 93.4708 65.4832 92.9002 64.625 92.0414L1.22052 34.2314C0.817642 33.8641 0.4959 33.4167 0.275892 32.9178C0.0558844 32.419 -0.0575425 31.8797 -0.0571278 31.3345C-0.056713 30.7893 0.0575343 30.2501 0.278301 29.7516C0.499068 29.2531 0.82149 28.8062 1.22493 28.4394L6.40374 23.7314C7.08013 23.1157 7.95074 22.7564 8.86442 22.7158C9.77811 22.6751 10.6772 22.9557 11.4056 23.5088L87.7593 81.4319C90.3208 83.3758 94 81.5487 94 78.3336V78.5583C94 79.6642 93.6879 80.7477 93.0995 81.6841C92.5111 82.6205 91.6704 83.3719 90.674 83.8517Z" fill="#007ACC"/>
</g>
<g filter="url(#filter1_d_41_58)">
<path d="M71.3063 93.1791C70.212 93.7049 68.9814 93.8779 67.7845 93.6741C66.5877 93.4703 65.4836 92.8999 64.625 92.0415C66.7929 94.2094 70.5 92.6738 70.5 89.6078V4.39164C70.5 1.32563 66.7929 -0.209951 64.625 1.95866C65.4836 1.10031 66.5877 0.529836 67.7845 0.32606C68.9814 0.122284 70.212 0.295269 71.3063 0.821111L90.6711 10.1345C91.6683 10.614 92.5097 11.3654 93.0987 12.3021C93.6876 13.2388 94 14.3228 94 15.4293V78.5723C94 79.6788 93.6876 80.7628 93.0987 81.6995C92.5097 82.6363 91.6683 83.3877 90.6711 83.8672L71.3063 93.1791Z" fill="#1F9CF0"/>
</g>
<path opacity="0.25" fill-rule="evenodd" clip-rule="evenodd" d="M66.6005 93.3581C67.3484 93.6495 68.1483 93.784 68.9504 93.7532C69.7525 93.7224 70.5397 93.5269 71.2631 93.1789L90.6161 83.8663C91.6128 83.3864 92.4539 82.6349 93.0424 81.6982C93.6309 80.7615 93.943 79.6777 93.9428 78.5714V15.4284C93.943 14.3222 93.6309 13.2383 93.0424 12.3016C92.4539 11.3649 91.6128 10.6134 90.6161 10.1336L71.2631 0.822421C70.1695 0.296246 68.9394 0.123004 67.7431 0.326673C66.5467 0.530341 65.4433 1.10085 64.5854 1.95923L27.5362 35.7596L11.399 23.5102C10.671 22.9578 9.77255 22.6775 8.85952 22.718C7.94649 22.7585 7.07642 23.1172 6.40014 23.732L1.22426 28.4401C0.821006 28.807 0.498754 29.254 0.27811 29.7526C0.0574665 30.2511 -0.0567131 30.7903 -0.0571278 31.3355C-0.0575425 31.8807 0.0558168 32.42 0.275702 32.9189C0.495587 33.4178 0.817159 33.8653 1.21986 34.2328L15.2148 46.9999L1.22059 59.7678C0.817793 60.1352 0.49613 60.5827 0.27618 61.0817C0.0562304 61.5806 -0.0571642 62.1199 -0.0567494 62.6651C-0.0563347 63.2104 0.0578802 63.7495 0.278589 64.2481C0.499298 64.7466 0.82164 65.1937 1.225 65.5605L6.40087 70.2686C7.07706 70.8834 7.94709 71.2423 8.86012 71.2829C9.77315 71.3236 10.6716 71.0435 11.3998 70.4911L27.5377 58.241L64.5869 92.0413C65.1601 92.6145 65.8457 93.0628 66.6005 93.3581ZM70.4575 25.6605L42.3456 46.9999L70.4575 68.3387V25.6605Z" fill="url(#paint0_linear_41_58)"/>
</g>
</g>
<defs>
<filter id="filter0_d_41_58" x="-1.09888" y="21.6702" width="96.1406" height="73.1285" filterUnits="userSpaceOnUse" color-interpolation-filters="sRGB">
<feFlood flood-opacity="0" result="BackgroundImageFix"/>
<feColorMatrix in="SourceAlpha" type="matrix" values="0 0 0 0 0 0 0 0 0 0 0 0 0 0 0 0 0 0 127 0" result="hardAlpha"/>
<feOffset/>
<feGaussianBlur stdDeviation="0.520875"/>
<feColorMatrix type="matrix" values="0 0 0 0 0 0 0 0 0 0 0 0 0 0 0 0 0 0 0.25 0"/>
<feBlend mode="overlay" in2="BackgroundImageFix" result="effect1_dropShadow_41_58"/>
<feBlend mode="normal" in="SourceGraphic" in2="effect1_dropShadow_41_58" result="shape"/>
</filter>
<filter id="filter1_d_41_58" x="63.5833" y="-0.79883" width="31.4585" height="95.5978" filterUnits="userSpaceOnUse" color-interpolation-filters="sRGB">
<feFlood flood-opacity="0" result="BackgroundImageFix"/>
<feColorMatrix in="SourceAlpha" type="matrix" values="0 0 0 0 0 0 0 0 0 0 0 0 0 0 0 0 0 0 127 0" result="hardAlpha"/>
<feOffset/>
<feGaussianBlur stdDeviation="0.520875"/>
<feColorMatrix type="matrix" values="0 0 0 0 0 0 0 0 0 0 0 0 0 0 0 0 0 0 0.25 0"/>
<feBlend mode="overlay" in2="BackgroundImageFix" result="effect1_dropShadow_41_58"/>
<feBlend mode="normal" in="SourceGraphic" in2="effect1_dropShadow_41_58" result="shape"/>
</filter>
<linearGradient id="paint0_linear_41_58" x1="46.9428" y1="0.242265" x2="46.9428" y2="93.7576" gradientUnits="userSpaceOnUse">
<stop stop-color="white"/>
<stop offset="1" stop-color="white" stop-opacity="0"/>
</linearGradient>
<clipPath id="clip0_41_58">
<rect width="94" height="94" fill="white"/>
</clipPath>
</defs>
</svg>
